<?xml version="1.0" encoding="utf-8"?>
<!-- Generator: Adobe Illustrator 23.1.0, SVG Export Plug-In . SVG Version: 6.00 Build 0)  -->
<svg version="1.1" id="Слой_1" xmlns="http://www.w3.org/2000/svg" xmlns:xlink="http://www.w3.org/1999/xlink" x="0px" y="0px"
	 viewBox="0 0 1366 768" style="enable-background:new 0 0 1366 768;" xml:space="preserve">
<style type="text/css">
	.st0{fill:#000;}
</style>
<g>
	<path class="st0" d="M391.2,423.15c-0.01,0.01-0.03,0.02-0.04,0.03C391.17,423.17,391.18,423.16,391.2,423.15z"/>
	<path class="st0" d="M387.94,425.24c-9.3,5.56-20.17,8.77-31.79,8.77c-34.23,0-61.98-27.75-61.98-61.98s27.75-61.98,61.98-61.98
		c34.23,0,61.98,27.75,61.98,61.98c0,11.62-3.21,22.49-8.77,31.79c0,0,0,0,0,0l29.62,29.62c8.24-13.29,13-28.95,13-45.73
		c0-48-38.91-86.91-86.91-86.91s-86.91,38.91-86.91,86.91s38.91,86.91,86.91,86.91c20.26,0,38.9-6.93,53.68-18.56L387.94,425.24
		C387.94,425.24,387.94,425.24,387.94,425.24z"/>
	<path class="st0" d="M407.3,407.04c-0.01,0.01-0.02,0.03-0.03,0.04C407.28,407.06,407.29,407.05,407.3,407.04z"/>
</g>
<g>
	<g>
		<path class="st0" d="M492.31,345.75h47.13v11.49H506.5v19.93h30.6v11.49h-30.6v31.41h-14.19V345.75z"/>
		<path class="st0" d="M568.38,351.05c0,4.06-3.02,7.5-8.15,7.5c-4.86,0-7.88-3.44-7.88-7.5c0-4.12,3.11-7.5,8.03-7.5
			S568.32,346.88,568.38,351.05z M553.25,420.07v-53.68h14.19v53.68H553.25z"/>
		<path class="st0" d="M583.35,382.63c0-6.25-0.17-11.63-0.44-16.24h12.41l0.69,8.64h0.35c2.32-4.12,8.56-9.96,18.58-9.96
			c9.5,0,20.87,5.72,20.87,24.21v30.79h-14.19v-29.03c0-8.48-3.39-14.56-11.57-14.56c-6.23,0-10.34,4.34-11.89,8.43
			c-0.44,1.09-0.63,2.71-0.63,4.11v31.05h-14.19V382.63z"/>
		<path class="st0" d="M705.42,341.12v63.71c0,5.87,0.17,11.75,0.44,15.24h-12.74l-0.58-9.21h-0.22
			c-3.65,6.74-10.93,10.53-19.51,10.53c-13.63,0-25.22-10.78-25.22-27.39c-0.11-17.7,12.17-28.94,26.5-28.94
			c8.33,0,14.3,3.33,16.93,7.38h0.22v-31.33H705.42z M691.23,389.36c0-1.1-0.09-2.51-0.35-3.61c-1.44-5.54-6.45-10-13.43-10
			c-9.68,0-15.43,7.46-15.43,17.53c0,9.59,5.57,16.86,15.32,16.86c6.66,0,12.15-4.67,13.48-10.66c0.32-1.31,0.41-2.68,0.41-4.13
			V389.36z"/>
		<path class="st0" d="M790.15,389.21c-0.46-10.02-0.95-22.03-0.95-32.8h-0.28c-2.79,9.44-6.27,19.8-9.94,29.98l-11.99,32.79h-11.23
			l-10.7-32.49c-3.25-10.2-6.1-20.59-8.28-30.28h-0.22c-0.39,10.17-0.82,22.73-1.44,33.27l-1.77,30.38H719.9l4.95-74.32h19.6
			l10.52,29.77c2.81,8.51,5.36,17.67,7.25,25.9h0.35c2.24-8.04,5.09-17.55,8.21-25.98l11.4-29.69h19.26l4.23,74.32h-14.08
			L790.15,389.21z"/>
		<path class="st0" d="M828.68,366.39L839.55,395c1.17,3.23,2.55,7.64,3.42,10.57h0.35c0.96-3.06,2.08-7.28,3.22-10.76l9.44-28.43
			h15.44l-14.6,36.07c-8.85,22.85-14.28,30.87-20.71,35.81c-5.71,4.5-11.49,6.03-15.29,6.37l-2.81-11.86
			c2.21-0.4,5.14-1.38,8.01-3.11c2.76-1.5,6.21-4.78,8.39-8.89c0.57-0.87,0.91-1.72,0.91-2.35c0-0.57-0.16-1.4-0.83-2.87
			l-21.57-49.18H828.68z"/>
		<path class="st0" d="M897.56,345.75h14.19v46.98c0,20.92-10.34,28.66-26.44,28.66c-4.16,0-9.67-0.79-13.03-2.03l1.89-11.31
			c2.47,0.87,5.92,1.62,9.7,1.62c8.62,0,13.7-3.97,13.7-17.68V345.75z"/>
		<path class="st0" d="M983.09,392.57c0,19.09-14.75,28.82-30.33,28.82c-16.39,0-29.43-10.76-29.43-27.67
			c0-17.01,12.29-28.65,30.52-28.65C971.39,365.07,983.09,376.77,983.09,392.57z M938.02,393.32c0,10.76,6.37,17.95,15.2,17.95
			c8.42,0,15.18-6.48,15.18-18.18c0-8.65-4.53-17.9-14.99-17.9C942.8,375.19,938.02,383.99,938.02,393.32z"/>
		<path class="st0" d="M994.59,420.07c0.27-3.48,0.44-9.37,0.44-15.24v-63.71h14.19v33.17h0.22c3.5-5.49,10.08-9.23,19.1-9.23
			c14.29,0,24.97,10.86,24.84,27.39c0,19.37-13.73,28.93-26.85,28.93c-7.57,0-14.7-2.7-19.02-9.88h-0.22l-0.58,8.56H994.59z
			 M1009.22,396.81c0,1.07,0.09,2.13,0.3,3.14c1.39,5.44,6.74,10.38,13.87,10.38c9.44,0,15.56-6.53,15.56-17.4
			c0-9.27-5.3-17.11-15.33-17.11c-6.33,0-12.24,4.08-13.95,10.88c-0.25,1.07-0.44,2.18-0.44,3.53V396.81z"/>
	</g>
</g>
</svg>
